# xmcd
#
# Track frame offsets: 
#        150
#        14770
#        39402
#        55142
#        70137
#        85647
#        101722
#        114575
#        127720
#        144797
#        157865
#        176757
#        190062
#        205132
#        222935
#        243042
#        259250
#        274097
#
# Disc length: 3830 seconds
#
# Revision: 4
# Processed by: cddbd v1.5.1PL0 Copyright (c) Steve Scherf et al.
# Submitted via: ExactAudioCopy v0.90b4
#
DISCID=f10ef412
DTITLE=The Stylistics - The Best Of The Stylistics
DYEAR=1996
DGENRE=Soul
TTITLE0=Can't Give You Anything (But My Love)
TTITLE1=You Make Me Feel Brand New
TTITLE2=Let's Put It All Together
TTITLE3=I'm Stone In Love With You
TTITLE4=Funky Weekend
TTITLE5=You'll Never Get To Heaven (If You Break My Heart)
TTITLE6=Peek-A-Boo
TTITLE7=Stop, Look, Listen (To Your Heart)
TTITLE8=Betcha By Golly, Wow
TTITLE9=Sing Baby Sing
TTITLE10=Star On A TV Show
TTITLE11=Na Na Is The Saddest Word
TTITLE12=7000 Dollars And You
TTITLE13=Break Up To Make Up
TTITLE14=Love At First Sight
TTITLE15=Only For The Children
TTITLE16=You're A Big Girl Now
TTITLE17=You Are Everything
EXTD=Karussell International - 551 114-2\nBarcode: 7 31455 11142 2
EXTT0=
EXTT1=
EXTT2=
EXTT3=
EXTT4=
EXTT5=
EXTT6=
EXTT7=
EXTT8=
EXTT9=
EXTT10=
EXTT11=
EXTT12=
EXTT13=
EXTT14=
EXTT15=
EXTT16=
EXTT17=
PLAYORDER=
